<?xml version="1.0" encoding="UTF-8"?>
<svg xmlns="http://www.w3.org/2000/svg" id="Layer_1" data-name="Layer 1" viewBox="0 0 24 24">
  <path d="m22.727,24h-7.453c-.884,0-1.49-.841-1.2-1.642.708-1.955,2.647-3.358,4.927-3.358s4.218,1.403,4.927,3.358c.29.801-.316,1.642-1.2,1.642Zm-3.727-12c-1.654,0-3,1.346-3,3s1.346,3,3,3,3-1.346,3-3-1.346-3-3-3Zm-3.5-6c.828,0,1.5-.671,1.5-1.5v-1.5h.546c1.078,0,2.02.676,2.365,1.69l.93,5.08c.149.815.935,1.351,1.745,1.206.815-.149,1.355-.931,1.206-1.746,0,0-.972-5.292-.989-5.348-.715-2.322-2.827-3.882-5.257-3.882H6.454C4.024,0,1.912,1.561,1.198,3.883c-.018.056-1.198,6.526-1.198,6.617,0,1.557.795,2.93,2,3.738v5.262c0,2.481,2.019,4.5,4.5,4.5h4c.829,0,1.5-.671,1.5-1.5s-.671-1.5-1.5-1.5h-4c-.827,0-1.5-.673-1.5-1.5v-4.5h.5c1.157,0,2.202-.451,3-1.17.798.72,1.843,1.17,3,1.17h1c.828,0,1.5-.671,1.5-1.5s-.672-1.5-1.5-1.5h-1c-.827,0-1.5-.673-1.5-1.5s-.671-1.5-1.5-1.5-1.5.671-1.5,1.5-.673,1.5-1.5,1.5h-1c-.789,0-1.438-.612-1.496-1.387l1.085-5.923c.346-1.014,1.287-1.69,2.365-1.69h.546v1.5c0,.829.671,1.5,1.5,1.5s1.5-.671,1.5-1.5v-1.5h4v1.5c0,.829.672,1.5,1.5,1.5Z"/>
</svg>
