<?xml version="1.0" encoding="UTF-8"?>
<svg xmlns="http://www.w3.org/2000/svg" id="Layer_1" data-name="Layer 1" viewBox="0 0 24 24">
  <path d="m5,15h3v3h-3v-3Zm3-5h-3v3h3v-3Zm0-5h-3v3h3v-3Zm5,0h-3v3h3v-3Zm-3,8h.298c.685-1.093,1.609-2.017,2.702-2.702v-.298h-3v3Zm-.24,8H3V3.5c0-.276.224-.5.5-.5h11c.276,0,.5.224.5.5v5.875c.791-.243,1.63-.375,2.5-.375.169,0,.334.016.5.025V3.5c0-1.93-1.57-3.5-3.5-3.5H3.5C1.57,0,0,1.57,0,3.5v20.5h12.028c-.964-.813-1.741-1.837-2.268-3Zm14.24-3.5c0,3.59-2.91,6.5-6.5,6.5s-6.5-2.91-6.5-6.5,2.91-6.5,6.5-6.5,6.5,2.91,6.5,6.5Zm-2.293-.707l-3.707-3.793v3h-4v3h4v3l3.707-3.793c.39-.39.39-1.024,0-1.414Z"/>
</svg>
