<?xml version="1.0" encoding="UTF-8"?>
<svg xmlns="http://www.w3.org/2000/svg" id="Layer_1" data-name="Layer 1" viewBox="0 0 24 24">
  <path d="m24,17.5v.5h-12v-.5c0-1.758,1.308-3.204,3-3.449,0-1.103.897-2.051,2-2.051h2c1.103,0,2,.948,2,2.051,1.692.245,3,1.691,3,3.449Zm-14,0c0-1.204.411-2.326,1.093-3.244-.673-.161-1.372-.256-2.093-.256C4.043,14,.009,18.028,0,22.983c-.001.557.443,1.017,1,1.017h10.261c-.787-.952-1.261-2.172-1.261-3.5v-3Zm-1-5.5c3.309,0,6-2.691,6-6S12.309,0,9,0,3,2.691,3,6s2.691,6,6,6Zm9,9c-.552,0-1-.448-1-1h-5v.5c0,1.93,1.57,3.5,3.5,3.5h5c1.93,0,3.5-1.57,3.5-3.5v-.5h-5c0,.552-.448,1-1,1Z"/>
</svg>
