<svg xmlns="http://www.w3.org/2000/svg" xmlns:xlink="http://www.w3.org/1999/xlink" viewBox="0,0,256,256" width="128px" height="128px"><defs><clipPath id="clip-1"><path d="M0,256v-256h256v191h-15v-25h-50v25h-25v50h25l0,15zM256,256h-15v-15l15,0z" id="overlayBgMask" fill="none"></path></clipPath></defs><g clip-path="url(#clip-1)" fill="none" fill-rule="nonzero" stroke="none" stroke-width="1" stroke-linecap="butt" stroke-linejoin="miter" stroke-miterlimit="10" stroke-dasharray="" stroke-dashoffset="0" font-family="none" font-weight="none" font-size="none" text-anchor="none" style="mix-blend-mode: normal"><g transform="scale(8,8)" fill="#000000"><path d="M16,2.59375l-0.71875,0.6875l-13,13l1.4375,1.4375l1.28125,-1.28125v11.5625h9v-10h4v10h9v-11.5625l1.28125,1.28125l1.4375,-1.4375l-13,-13zM16,5.4375l9,9v11.5625h-5v-10h-8v10h-5v-11.5625z"></path></g></g><g fill="#000000" fill-rule="nonzero" stroke="none" stroke-width="1" stroke-linecap="butt" stroke-linejoin="miter" stroke-miterlimit="10" stroke-dasharray="" stroke-dashoffset="0" font-family="none" font-weight="none" font-size="none" text-anchor="none" style="mix-blend-mode: normal"><g transform="translate(176,176) scale(5,5)" id="overlay"><path d="M11,16h-6v-5h-5v-6h5v-5h6v5h5v6h-5zM7,14h2v-5h5v-2h-5v-5h-2v5h-5v2h5z"></path></g></g></svg>