<?xml version="1.0" standalone="no"?>
<!DOCTYPE svg PUBLIC "-//W3C//DTD SVG 20010904//EN"
 "http://www.w3.org/TR/2001/REC-SVG-20010904/DTD/svg10.dtd">
<svg version="1.0" xmlns="http://www.w3.org/2000/svg"
 width="512.000000pt" height="512.000000pt" viewBox="0 0 512.000000 512.000000"
 preserveAspectRatio="xMidYMid meet">

<g transform="translate(0.000000,512.000000) scale(0.100000,-0.100000)"
fill="#000000" stroke="none">
<path d="M1939 5102 c-121 -32 -235 -128 -290 -246 -117 -250 23 -554 289
-628 213 -59 431 40 529 240 38 75 38 77 38 197 0 120 0 122 -38 197 -98 199
-311 296 -528 240z"/>
<path d="M638 4697 c-64 -19 -151 -78 -189 -130 -141 -193 -75 -448 141 -551
56 -27 76 -31 145 -30 149 1 263 71 327 202 30 60 33 75 33 157 0 78 -4 98
-28 151 -74 159 -263 247 -429 201z"/>
<path d="M3287 4700 c-60 -16 -117 -49 -166 -98 -180 -181 -126 -475 107 -585
58 -28 77 -32 147 -31 148 1 263 72 327 202 30 60 33 75 33 157 0 78 -4 98
-29 152 -56 122 -178 204 -310 209 -39 2 -88 -1 -109 -6z"/>
<path d="M1525 4090 c-172 -26 -313 -149 -365 -319 -19 -59 -20 -95 -20 -586
0 -493 1 -527 20 -587 36 -117 126 -221 238 -274 31 -15 58 -28 59 -29 2 -1
32 -235 68 -521 36 -285 70 -542 76 -570 12 -61 61 -124 123 -157 38 -21 56
-22 281 -25 131 -2 258 -1 281 3 l41 6 -9 52 c-15 85 -12 332 6 437 45 279
161 531 340 745 46 55 113 125 149 155 36 30 77 76 91 101 52 94 56 132 56
660 0 290 -4 508 -10 540 -36 189 -195 342 -382 368 -108 15 -142 2 -258 -95
-142 -120 -240 -148 -345 -100 -31 14 -93 54 -138 89 -45 35 -95 71 -112 79
-25 13 -131 41 -138 37 -1 -1 -24 -5 -52 -9z"/>
<path d="M263 3876 c-104 -34 -185 -106 -232 -205 l-26 -56 -3 -429 c-3 -463
0 -491 52 -575 33 -51 110 -119 160 -142 l43 -19 12 -87 c6 -49 32 -250 57
-447 25 -200 51 -371 59 -386 18 -35 69 -78 103 -88 15 -4 126 -7 247 -7 215
0 221 1 263 25 77 44 80 54 128 428 l44 337 -49 50 c-96 100 -152 209 -177
345 -18 104 -19 1022 0 1128 7 39 11 72 10 72 0 0 -19 -14 -40 -31 -54 -43
-132 -79 -174 -79 -47 0 -123 37 -190 92 -30 25 -71 53 -90 63 -45 23 -143 29
-197 11z"/>
<path d="M3672 3880 c-13 -5 -53 -35 -90 -67 -77 -65 -152 -103 -202 -103 -48
0 -123 37 -194 95 -58 48 -59 48 -51 19 22 -81 24 -148 25 -636 0 -291 1 -528
3 -528 1 0 40 16 86 35 104 44 228 79 351 101 105 17 350 21 437 6 29 -5 55
-7 58 -4 10 10 5 717 -5 781 -28 172 -164 299 -329 307 -36 2 -76 0 -89 -6z"/>
<path d="M3710 2554 c-14 -2 -56 -9 -95 -15 -105 -17 -248 -65 -355 -120 -349
-178 -592 -498 -676 -891 -26 -117 -25 -380 0 -498 55 -257 169 -466 355 -651
185 -186 394 -300 651 -355 119 -26 381 -26 500 0 123 27 222 62 332 118 126
64 212 127 321 236 180 178 298 397 353 654 26 117 25 380 0 498 -55 257 -169
466 -355 651 -185 185 -380 293 -631 350 -81 19 -340 34 -400 23z m235 -404
c52 -22 103 -73 129 -130 18 -40 21 -69 24 -262 l4 -216 216 -4 c242 -4 274
-11 341 -79 109 -109 94 -302 -32 -386 -66 -44 -122 -53 -337 -53 l-188 0 -4
-218 -3 -218 -30 -60 c-49 -96 -162 -154 -266 -138 -65 11 -140 62 -175 121
-41 68 -44 91 -44 321 l0 192 -192 0 c-230 0 -253 3 -321 44 -169 101 -159
351 17 441 l60 30 218 3 218 4 0 188 c0 104 5 211 11 239 35 163 200 248 354
181z"/>
</g>
</svg>
