<?xml version="1.0" standalone="no"?>
<!DOCTYPE svg PUBLIC "-//W3C//DTD SVG 20010904//EN"
 "http://www.w3.org/TR/2001/REC-SVG-20010904/DTD/svg10.dtd">
<svg version="1.0" xmlns="http://www.w3.org/2000/svg"
 width="512.000000pt" height="512.000000pt" viewBox="0 0 512.000000 512.000000"
 preserveAspectRatio="xMidYMid meet">

<g transform="translate(0.000000,512.000000) scale(0.100000,-0.100000)"
fill="#000000" stroke="none">
<path d="M2438 4994 c-239 -57 -407 -270 -408 -514 0 -185 96 -358 255 -459
156 -99 394 -99 550 0 315 200 343 644 55 871 -130 102 -297 140 -452 102z
m222 -216 c196 -61 279 -298 164 -475 -59 -92 -154 -143 -264 -143 -110 0
-205 51 -264 143 -83 128 -68 293 37 395 93 90 205 117 327 80z"/>
<path d="M445 4469 c-90 -13 -212 -77 -283 -149 -101 -100 -149 -205 -159
-345 -10 -154 43 -291 157 -405 114 -114 251 -167 405 -157 140 10 245 58 345
159 176 175 205 456 69 661 -40 61 -139 152 -198 181 -100 51 -227 72 -336 55z
m230 -241 c60 -31 114 -86 146 -148 34 -65 34 -204 1 -272 -27 -55 -91 -122
-142 -148 -84 -43 -205 -43 -289 -1 -181 93 -232 332 -103 486 33 40 92 82
139 100 61 23 186 15 248 -17z"/>
<path d="M4525 4473 c-52 -7 -137 -34 -186 -59 -59 -29 -158 -120 -198 -181
-136 -205 -107 -486 69 -661 100 -101 205 -149 345 -159 154 -10 291 43 405
157 114 114 167 251 157 405 -14 197 -123 358 -300 445 -100 49 -195 66 -292
53z m197 -241 c55 -27 122 -91 148 -142 43 -84 43 -205 1 -289 -80 -156 -276
-220 -431 -141 -51 26 -115 93 -142 148 -33 68 -33 207 1 272 42 81 115 143
201 171 49 16 172 5 222 -19z"/>
<path d="M2101 3715 c-35 -8 -103 -33 -150 -57 -166 -82 -297 -251 -336 -434
-18 -84 -21 -444 -4 -492 24 -69 116 -87 170 -33 l29 29 0 179 c0 98 5 206 10
241 26 186 176 336 362 362 35 5 205 10 378 10 173 0 343 -5 378 -10 186 -26
336 -176 362 -362 5 -35 10 -205 10 -378 l0 -316 -62 -13 c-72 -14 -153 -62
-192 -114 -44 -57 -60 -107 -65 -207 l-6 -95 -425 0 -425 0 -6 95 c-8 136 -43
208 -135 271 -77 52 -121 59 -406 59 l-257 0 -103 128 c-57 70 -153 190 -213
267 -202 257 -290 326 -449 347 -282 38 -511 -103 -556 -341 -6 -33 -10 -334
-10 -790 0 -812 0 -806 63 -925 60 -114 196 -226 322 -267 28 -9 154 -14 433
-18 l393 -6 146 -340 c95 -224 154 -350 173 -369 62 -63 173 -18 172 71 0 44
-311 779 -348 822 l-22 26 -434 5 -433 5 -67 33 c-76 37 -120 82 -157 162
l-26 55 0 755 0 755 25 45 c14 24 44 58 68 75 40 28 51 30 143 33 55 2 110 1
122 -2 67 -16 121 -73 371 -385 139 -174 261 -323 271 -331 15 -12 73 -16 324
-20 274 -4 309 -7 333 -23 34 -23 48 -64 48 -138 l0 -59 -453 0 -452 0 -153
203 c-146 196 -177 227 -223 227 -58 0 -110 -62 -101 -121 3 -21 57 -101 156
-233 l151 -201 5 -222 5 -223 33 -32 32 -33 258 -5 c251 -5 258 -6 300 -30 26
-15 54 -42 69 -67 13 -23 105 -283 203 -578 99 -296 186 -548 194 -561 9 -12
32 -28 52 -33 67 -19 134 28 134 94 0 16 -84 281 -186 589 -210 629 -217 644
-332 723 -95 65 -139 75 -354 80 l-188 5 0 104 0 104 1490 0 1490 0 0 -104 0
-104 -187 -5 c-216 -5 -260 -15 -355 -80 -115 -79 -122 -94 -332 -723 -102
-308 -186 -573 -186 -589 0 -66 67 -113 134 -94 20 5 43 21 52 33 8 13 95 265
194 561 98 295 190 555 203 578 15 25 43 52 69 67 42 24 49 25 300 30 l258 5
32 33 33 32 5 223 5 222 151 201 c99 132 153 212 156 233 9 59 -43 121 -101
121 -46 0 -77 -31 -223 -227 l-153 -203 -452 0 -453 0 0 59 c0 74 14 115 48
138 24 16 57 18 327 21 242 3 304 6 322 18 13 8 137 158 277 333 252 314 306
371 373 387 12 3 67 4 122 2 92 -3 103 -5 143 -33 24 -17 54 -51 68 -75 l25
-45 0 -755 0 -755 -33 -67 c-37 -76 -82 -120 -162 -157 l-55 -26 -433 -5 -434
-5 -22 -26 c-37 -43 -348 -778 -348 -822 -1 -89 110 -134 172 -71 19 19 78
145 173 369 l146 340 393 6 c279 4 405 9 433 18 126 41 262 153 322 267 63
119 63 113 63 925 0 456 -4 757 -10 790 -45 238 -274 379 -556 341 -159 -21
-247 -90 -449 -347 -60 -77 -156 -197 -213 -267 l-103 -128 -135 0 -134 0 0
353 c0 403 -5 441 -72 576 -82 166 -251 297 -434 336 -97 20 -818 20 -913 0z"/>
<path d="M2450 3195 l0 -105 110 0 110 0 0 105 0 105 -110 0 -110 0 0 -105z"/>
<path d="M2455 1588 c-3 -7 -4 -344 -3 -748 l3 -735 105 0 105 0 0 745 0 745
-103 3 c-76 2 -104 -1 -107 -10z"/>
</g>
</svg>
