<svg xmlns="http://www.w3.org/2000/svg" version="1.1" viewBox="-5.0 -10.0 110.0 135.0">
 <g>
  <path d="m91.391 30.594-40.625-22.594s-0.10938-0.03125-0.15625-0.046875c-0.09375-0.046875-0.20312-0.078125-0.3125-0.09375-0.09375-0.015625-0.1875-0.03125-0.29688-0.03125-0.09375 0-0.1875 0-0.29688 0.03125-0.10938 0.015625-0.20312 0.0625-0.3125 0.09375-0.046875 0.015625-0.10938 0.015625-0.15625 0.046875l-40.625 22.594c-0.5 0.28125-0.79688 0.79688-0.79688 1.3594v58.656c0 0.85938 0.70312 1.5625 1.5625 1.5625h9.375c0.85938 0 1.5625-0.70312 1.5625-1.5625v-39.062h59.375v39.062c0 0.85938 0.70312 1.5625 1.5625 1.5625h9.375c0.85938 0 1.5625-0.70312 1.5625-1.5625v-58.641c0-0.5625-0.3125-1.0938-0.79688-1.3594zm-41.391 8.4688h29.688v3.125h-59.375v-3.125zm-29.688 9.375v-3.125h59.375v3.125zm62.5 1.5625v-12.5c0-0.85938-0.70312-1.5625-1.5625-1.5625h-62.5c-0.85938 0-1.5625 0.70312-1.5625 1.5625v51.562h-6.25v-56.188l39.062-21.719 39.062 21.719v56.188h-6.25z"/>
  <path d="m67.188 71.875h-7.0312v-15.625c0-0.85938-0.70312-1.5625-1.5625-1.5625h-17.188c-0.85938 0-1.5625 0.70312-1.5625 1.5625v15.625h-7.0312c-0.85938 0-1.5625 0.70312-1.5625 1.5625v17.188c0 0.85938 0.70312 1.5625 1.5625 1.5625h34.375c0.85938 0 1.5625-0.70312 1.5625-1.5625v-17.188c0-0.85938-0.70312-1.5625-1.5625-1.5625zm-10.469 3.125h3.75v3.5938h-3.75zm-4.8438-17.188v3.5938h-3.75v-3.5938zm-8.9062 0h2.0312v5.1562c0 0.85938 0.70312 1.5625 1.5625 1.5625h6.875c0.85938 0 1.5625-0.70312 1.5625-1.5625v-5.1562h2.0312v14.062h-14.062zm-1.5625 17.188h1.875v3.5938h-3.75v-3.5938zm-7.0312 0h2.0312v5.1562c0 0.85938 0.70312 1.5625 1.5625 1.5625h6.875c0.85938 0 1.5625-0.70312 1.5625-1.5625v-5.1562h2.0312v14.062h-14.062zm31.25 14.062h-14.062v-14.062h2.0312v5.1562c0 0.85938 0.70312 1.5625 1.5625 1.5625h6.875c0.85938 0 1.5625-0.70312 1.5625-1.5625v-5.1562h2.0312z"/>
 </g>
</svg>