<?xml version="1.0" encoding="UTF-8"?>
<svg xmlns="http://www.w3.org/2000/svg" id="Layer_1" data-name="Layer 1" viewBox="0 0 24 24">
  <path d="m11.085,6.663c-.227-.994-1.065-1.663-2.085-1.663s-1.859.669-2.085,1.664l-1.621,7.122c-.123.538.215,1.074.753,1.196.539.128,1.075-.214,1.197-.753l.278-1.222h2.956l.278,1.222c.105.464.518.778.974.778.074,0,.148-.008.223-.025.539-.122.876-.658.753-1.196l-1.621-7.123Zm-3.108,4.345l.887-3.899c.01-.046.024-.108.135-.108s.125.062.135.107l.888,3.9h-2.045Zm11.023-3.508c0,.828-.672,1.5-1.5,1.5h-2c-.828,0-1.5-.672-1.5-1.5s.672-1.5,1.5-1.5h2c.828,0,1.5.672,1.5,1.5Zm-1,5c0,.828-.672,1.5-1.5,1.5h-1c-.828,0-1.5-.672-1.5-1.5s.672-1.5,1.5-1.5h1c.828,0,1.5.672,1.5,1.5Zm.5-12.5H5.5C2.467,0,0,2.468,0,5.5v9c0,3.032,2.467,5.5,5.5,5.5h1.241l3.598,3.03c.479.426,1.08.636,1.675.636.583,0,1.158-.201,1.606-.601l3.708-3.065h1.172c3.032,0,5.5-2.468,5.5-5.5V5.5c0-3.032-2.468-5.5-5.5-5.5Zm2.5,14.5c0,1.379-1.121,2.5-2.5,2.5h-1.712c-.349,0-.687.122-.956.344l-3.829,3.167-3.749-3.158c-.271-.228-.613-.353-.966-.353h-1.789c-1.378,0-2.5-1.121-2.5-2.5V5.5c0-1.379,1.122-2.5,2.5-2.5h13c1.379,0,2.5,1.121,2.5,2.5v9Z"/>
</svg>
