<?xml version="1.0" encoding="UTF-8"?>
<svg xmlns="http://www.w3.org/2000/svg" id="Layer_1" data-name="Layer 1" viewBox="0 0 24 24">
  <path d="m1,15c0-1.657,1.343-3,3-3s3,1.343,3,3-1.343,3-3,3-3-1.343-3-3Zm3,5c-1.853,0-3.422,1.17-3.955,2.785-.199.601.29,1.215.945,1.215h6.02c.655,0,1.144-.613.945-1.215-.533-1.615-2.103-2.785-3.955-2.785Zm19.955,2.785c-.533-1.615-2.103-2.785-3.955-2.785s-3.422,1.17-3.955,2.785c-.199.601.29,1.215.945,1.215h6.02c.655,0,1.144-.613.945-1.215Zm-6.955-7.785c0,1.657,1.343,3,3,3s3-1.343,3-3-1.343-3-3-3-3,1.343-3,3Zm-1.895-3.041l-1.784,1.543c-.374.332-.848.499-1.324.499-.481,0-.965-.17-1.351-.513l-1.735-1.529c-2.223-.295-3.919-2.179-3.919-4.451v-3.017C4.992,2.015,7.007,0,9.483,0h5.017c2.477,0,4.492,2.015,4.492,4.492v3.017c0,2.271-1.695,4.154-3.887,4.451Zm.887-7.468c0-.823-.669-1.492-1.492-1.492h-5.017c-.822,0-1.491.669-1.491,1.492v3.017c0,.823.669,1.492,1.491,1.492.365,0,.758.133,1.031.375l1.483,1.306,1.521-1.315c.272-.235.621-.365.981-.365.823,0,1.492-.669,1.492-1.492v-3.017Z"/>
</svg>
