<?xml version="1.0" standalone="no"?>
<!DOCTYPE svg PUBLIC "-//W3C//DTD SVG 20010904//EN"
 "http://www.w3.org/TR/2001/REC-SVG-20010904/DTD/svg10.dtd">
<svg version="1.0" xmlns="http://www.w3.org/2000/svg"
 width="512.000000pt" height="512.000000pt" viewBox="0 0 512.000000 512.000000"
 preserveAspectRatio="xMidYMid meet">

<g transform="translate(0.000000,512.000000) scale(0.100000,-0.100000)"
fill="#000000" stroke="none">
<path d="M2245 4835 c-244 -44 -472 -168 -643 -349 -403 -426 -429 -1083 -61
-1540 480 -597 1398 -577 1856 41 170 229 253 527 223 803 -30 284 -142 520
-340 720 -166 168 -389 285 -618 325 -102 18 -320 18 -417 0z"/>
<path d="M3686 2500 c-41 -13 -94 -68 -106 -110 -5 -19 -10 -85 -10 -147 l0
-111 -67 -22 c-38 -13 -94 -36 -126 -53 l-58 -30 -87 85 c-100 99 -118 110
-177 110 -91 0 -157 -66 -157 -157 0 -59 11 -77 110 -177 l85 -87 -30 -58
c-17 -32 -40 -88 -53 -125 l-22 -68 -111 0 c-62 0 -128 -5 -149 -10 -49 -14
-104 -76 -113 -129 -9 -53 25 -126 74 -158 31 -21 46 -23 167 -23 l133 0 16
-58 c9 -31 33 -90 52 -130 l36 -73 -91 -92 c-98 -99 -116 -136 -101 -206 20
-96 132 -149 223 -106 17 8 69 53 114 98 l83 83 73 -37 c40 -20 96 -42 124
-50 l52 -13 0 -121 c0 -105 3 -126 23 -165 41 -83 130 -113 213 -74 67 32 78
62 84 217 l5 139 72 23 c40 12 96 36 126 53 l54 30 84 -85 c46 -47 98 -91 116
-99 133 -57 266 76 209 209 -8 18 -52 70 -99 116 l-85 84 30 54 c17 30 41 86
53 126 l23 72 139 5 c155 6 185 17 217 84 39 83 9 172 -74 214 -39 19 -60 22
-165 22 l-121 0 -13 52 c-8 28 -30 84 -50 124 l-37 73 83 83 c45 45 90 97 98
114 43 91 -10 203 -106 223 -70 15 -107 -3 -206 -101 l-92 -91 -73 36 c-40 19
-99 43 -130 52 l-58 16 0 133 c0 121 -2 136 -23 167 -23 36 -97 80 -132 78
-11 0 -33 -5 -49 -9z m227 -712 c65 -31 165 -121 201 -182 67 -115 75 -278 19
-399 -44 -93 -118 -169 -211 -214 -64 -32 -85 -37 -161 -41 -147 -7 -243 31
-343 136 -90 94 -120 172 -120 304 1 184 101 329 279 404 52 22 70 24 168 22
94 -3 118 -7 168 -30z"/>
<path d="M2090 2309 c-414 -36 -807 -139 -1125 -294 -165 -81 -296 -168 -403
-269 -137 -130 -214 -244 -263 -391 -23 -67 -24 -83 -24 -340 l0 -270 27 -57
c34 -73 98 -137 174 -174 l59 -29 1113 -3 1113 -2 -25 37 c-37 56 -60 155 -52
228 7 69 49 162 99 220 l35 40 -79 11 c-142 21 -250 98 -307 222 -22 48 -27
71 -27 147 0 80 3 97 31 155 61 128 179 209 320 218 l74 5 -49 53 c-112 122
-130 298 -47 437 l33 55 -30 6 c-43 9 -535 5 -647 -5z"/>
</g>
</svg>
