<?xml version="1.0" standalone="no"?>
<!DOCTYPE svg PUBLIC "-//W3C//DTD SVG 20010904//EN"
 "http://www.w3.org/TR/2001/REC-SVG-20010904/DTD/svg10.dtd">
<svg version="1.0" xmlns="http://www.w3.org/2000/svg"
 width="512.000000pt" height="512.000000pt" viewBox="0 0 512.000000 512.000000"
 preserveAspectRatio="xMidYMid meet">

<g transform="translate(0.000000,512.000000) scale(0.100000,-0.100000)"
fill="#000000" stroke="none">
<path d="M2270 4974 c-361 -33 -699 -140 -982 -309 -646 -387 -1053 -1032
-1119 -1776 -60 -673 194 -1351 682 -1824 127 -123 215 -194 356 -286 404
-263 915 -395 1388 -359 121 9 397 56 448 76 11 4 19 0 23 -10 9 -23 57 -46
96 -46 21 0 66 19 128 54 75 43 98 52 109 43 7 -7 45 -30 85 -52 l71 -41 3
-113 c5 -189 8 -191 337 -191 261 0 279 4 315 63 17 26 20 51 20 139 l0 108
58 29 c31 17 70 39 86 49 l28 20 93 -54 c101 -59 139 -67 191 -35 41 25 274
429 274 475 0 52 -30 85 -125 140 l-90 52 0 104 0 104 89 52 c103 60 131 95
123 152 -6 44 -224 427 -262 459 -14 13 -35 23 -46 23 -24 0 -24 1 7 123 61
241 83 570 54 812 -63 539 -306 1023 -698 1396 -340 323 -766 532 -1232 604
-102 15 -419 27 -510 19z m515 -183 c459 -78 847 -281 1177 -617 318 -324 519
-735 584 -1191 8 -63 15 -181 15 -283 0 -253 -29 -438 -107 -672 -28 -86 -39
-108 -54 -108 -10 0 -21 4 -25 10 -3 5 -37 26 -75 47 l-70 38 0 106 c0 94 -3
110 -23 140 -38 57 -48 59 -318 59 -240 0 -247 -1 -280 -23 -19 -12 -38 -36
-43 -52 -6 -17 -11 -31 -12 -33 -1 -2 -44 25 -95 58 -52 34 -119 75 -149 90
-82 41 -235 96 -324 115 l-78 18 33 26 c176 135 295 332 329 544 15 93 8 254
-15 342 -24 91 -98 234 -160 313 -104 129 -264 236 -427 283 -101 29 -269 36
-373 16 -402 -76 -686 -413 -687 -817 -2 -270 109 -499 323 -670 l47 -37 -77
-18 c-418 -98 -773 -378 -966 -764 -41 -82 -104 -256 -121 -336 l-6 -30 -30
35 c-120 141 -273 424 -344 636 -318 952 57 1974 916 2500 254 155 563 258
885 294 125 14 412 4 550 -19z m-130 -955 c269 -92 447 -325 462 -606 7 -122
-13 -223 -69 -339 -32 -68 -57 -101 -127 -171 -141 -141 -286 -203 -481 -203
-259 -1 -490 143 -605 378 -50 101 -68 183 -68 300 1 200 69 353 222 497 80
76 198 140 303 163 101 23 264 14 363 -19z m311 -1519 c184 -48 356 -133 499
-248 l76 -61 -77 -44 c-43 -24 -81 -44 -86 -44 -4 0 -47 23 -95 50 -93 53
-133 61 -182 35 -21 -10 -61 -71 -152 -227 -164 -283 -163 -295 5 -394 l88
-51 0 -102 0 -102 -88 -52 c-156 -93 -162 -124 -55 -306 39 -67 71 -124 71
-126 0 -2 -32 -11 -71 -20 -287 -65 -648 -63 -942 6 -198 46 -437 144 -612
250 -88 53 -273 193 -345 260 l-54 51 16 97 c55 320 235 612 500 812 94 70
269 159 381 194 164 50 212 54 632 51 385 -2 391 -3 491 -29z m1106 -271 c4
-132 10 -144 96 -182 29 -13 83 -44 120 -69 93 -62 123 -61 236 4 l85 50 86
-151 c48 -83 83 -154 78 -158 -4 -5 -41 -28 -82 -52 -112 -66 -112 -64 -112
-256 -1 -134 2 -167 15 -187 9 -14 53 -46 97 -72 44 -25 82 -50 85 -54 6 -10
-158 -298 -170 -299 -5 0 -45 21 -89 46 -108 62 -133 62 -223 2 -38 -25 -95
-57 -125 -71 -88 -39 -99 -59 -99 -188 l0 -109 -174 0 -174 0 -4 103 c-3 56
-11 114 -18 129 -9 18 -39 41 -94 69 -45 23 -103 58 -129 77 -69 50 -102 48
-207 -11 -46 -26 -89 -46 -94 -44 -6 3 -40 56 -75 118 -36 63 -73 128 -84 146
l-18 32 78 45 c129 74 126 69 128 254 2 201 1 203 -116 272 l-89 52 34 62 c19
33 58 102 88 152 l53 92 70 -41 c129 -75 155 -77 249 -12 28 19 80 49 115 67
94 48 105 67 109 193 l4 105 173 0 173 0 4 -114z"/>
<path d="M3783 1686 c-233 -57 -392 -294 -353 -527 43 -253 286 -431 532 -390
187 31 336 165 383 346 87 336 -224 653 -562 571z m233 -175 c62 -28 118 -81
152 -146 23 -43 27 -62 27 -135 0 -73 -4 -92 -27 -136 -134 -256 -502 -214
-574 66 -63 245 188 454 422 351z"/>
</g>
</svg>
