<?xml version="1.0" encoding="UTF-8"?>
<svg xmlns="http://www.w3.org/2000/svg" id="Layer_1" data-name="Layer 1" viewBox="0 0 24 24">
  <path d="m5,6C5,2.691,7.691,0,11,0s6,2.691,6,6-2.691,6-6,6-6-2.691-6-6Zm16.685,10.267l-3.041-.507c-.373-.062-.644-.382-.644-.76,0-.551.448-1,.999-1l2.271.003c.36,0,.684.187.866.5.276.477.89.64,1.367.362.478-.277.64-.89.361-1.367-.536-.922-1.53-1.495-2.594-1.495h-.271v-1.003c0-.552-.447-1-1-1s-1,.448-1,1v1c-1.654,0-3,1.346-3,3,0,1.36.974,2.51,2.315,2.733l3.041.507c.373.062.644.382.644.76,0,.551-.448,1-.999,1l-2.27-.002c-.356,0-.688-.191-.866-.499-.276-.478-.889-.64-1.366-.364-.479.277-.642.889-.364,1.367.535.923,1.529,1.496,2.596,1.496h.27v1.002c0,.552.447,1,1,1s1-.448,1-1v-1c1.654,0,3-1.346,3-3,0-1.36-.974-2.51-2.315-2.733Zm-7.28,5.238c-.402-.693-.51-1.502-.304-2.277.145-.541.43-1.02.824-1.396-.585-.795-.925-1.776-.925-2.832,0-.157.032-.305.046-.458-.953-.344-1.976-.542-3.046-.542-4.963,0-9,4.038-9,9,0,.552.447,1,1,1h14.184c-.034-.095-.066-.191-.09-.291-1.114-.389-2.082-1.156-2.69-2.205Z"/>
</svg>
