<?xml version="1.0" standalone="no"?>
<!DOCTYPE svg PUBLIC "-//W3C//DTD SVG 20010904//EN"
 "http://www.w3.org/TR/2001/REC-SVG-20010904/DTD/svg10.dtd">
<svg version="1.0" xmlns="http://www.w3.org/2000/svg"
 width="512.000000pt" height="512.000000pt" viewBox="0 0 512.000000 512.000000"
 preserveAspectRatio="xMidYMid meet">

<g transform="translate(0.000000,512.000000) scale(0.100000,-0.100000)"
fill="#000000" stroke="none">
<path d="M2438 4900 c-158 -20 -340 -88 -475 -177 -72 -48 -192 -160 -248
-233 -146 -191 -218 -407 -218 -650 0 -303 113 -565 334 -775 306 -290 768
-372 1150 -204 357 156 594 481 640 874 27 234 -39 492 -179 704 -50 76 -171
201 -252 261 -73 54 -214 128 -295 154 -134 42 -328 62 -457 46z"/>
<path d="M1993 2339 c-657 -63 -1195 -550 -1324 -1198 -29 -150 -36 -320 -15
-417 43 -195 166 -354 343 -443 136 -68 89 -65 1026 -69 939 -3 899 -6 933 61
28 53 21 88 -39 208 -104 209 -141 365 -140 589 1 160 22 291 69 422 77 213
217 417 377 547 140 114 139 112 144 168 9 90 -32 112 -252 133 -118 11 -1003
11 -1122 -1z"/>
<path d="M3982 1909 c-46 -14 -118 -88 -131 -135 -6 -23 -11 -136 -11 -266 l0
-227 -248 -3 -249 -3 -41 -28 c-60 -39 -93 -94 -99 -164 -7 -80 31 -154 102
-198 l48 -30 244 -3 243 -4 0 -232 c0 -230 0 -232 26 -285 66 -132 229 -157
334 -52 64 64 70 95 70 355 l0 216 216 0 c260 0 291 6 355 70 105 105 80 268
-52 334 -53 26 -55 26 -285 26 l-232 0 -4 243 -3 242 -28 47 c-49 84 -160 126
-255 97z"/>
</g>
</svg>
